<svg id='Crime_Woman_Inmate_24' width='24' height='24' viewBox='0 0 24 24' xmlns='http://www.w3.org/2000/svg' xmlns:xlink='http://www.w3.org/1999/xlink'><rect width='24' height='24' stroke='none' fill='#000000' opacity='0'/>


<g transform="matrix(0.83 0 0 0.83 12 12)" >
<g style="" >
<g transform="matrix(1 0 0 1 0 0.73)" >
<path style="stroke: none; stroke-width: 1; stroke-dasharray: none; stroke-linecap: butt; stroke-dashoffset: 0; stroke-linejoin: miter; stroke-miterlimit: 4; fill: rgb(0,0,0); fill-rule: nonzero; opacity: 1;" transform=" translate(-12, -12.73)" d="M 10.47 12.21 C 10.111826607623625 12.40396084533115 9.977741945079073 12.85090972047966 10.17 13.21 C 10.56 13.940000000000001 11.4 13.430000000000001 11.42 13.420000000000002 C 11.608905571941117 13.367611403495209 11.80396586786402 13.34070653509205 11.999999999999998 13.340000000000002 L 12 13.340000000000002 C 12.196138236837967 13.3391868533747 12.391405606331091 13.366120283649614 12.579999999999998 13.420000000000002 C 12.73 13.420000000000002 13.45 13.900000000000002 13.83 13.220000000000002 C 14.016498911281241 12.860350698522062 13.88367301848871 12.417597722546956 13.53 12.220000000000002 C 13.058612783408725 11.971594570419452 12.532804121695966 11.844438227390874 11.999999999999998 11.85 L 12 11.85 C 11.467727512476431 11.838350563569755 10.94123300242433 11.962231624758484 10.47 12.21 Z" stroke-linecap="round" />
</g>
<g transform="matrix(1 0 0 1 -2 -2.12)" >
<path style="stroke: none; stroke-width: 1; stroke-dasharray: none; stroke-linecap: butt; stroke-dashoffset: 0; stroke-linejoin: miter; stroke-miterlimit: 4; fill: rgb(0,0,0); fill-rule: nonzero; opacity: 1;" transform=" translate(-10, -9.88)" d="M 9.5 10.63 L 10.5 10.63 C 10.914213562373096 10.63 11.25 10.294213562373097 11.25 9.88 C 11.25 9.465786437626905 10.914213562373096 9.13 10.5 9.13 L 9.5 9.13 C 9.085786437626904 9.13 8.75 9.465786437626905 8.75 9.88 C 8.75 10.294213562373097 9.085786437626904 10.63 9.5 10.63 Z" stroke-linecap="round" />
</g>
<g transform="matrix(1 0 0 1 2 -2.12)" >
<path style="stroke: none; stroke-width: 1; stroke-dasharray: none; stroke-linecap: butt; stroke-dashoffset: 0; stroke-linejoin: miter; stroke-miterlimit: 4; fill: rgb(0,0,0); fill-rule: nonzero; opacity: 1;" transform=" translate(-14, -9.88)" d="M 13.5 10.63 L 14.5 10.63 C 14.914213562373096 10.63 15.25 10.294213562373097 15.25 9.88 C 15.25 9.465786437626905 14.914213562373096 9.13 14.5 9.13 L 13.5 9.13 C 13.085786437626904 9.13 12.75 9.465786437626905 12.75 9.88 C 12.75 10.294213562373097 13.085786437626904 10.63 13.5 10.63 Z" stroke-linecap="round" />
</g>
<g transform="matrix(1 0 0 1 0 10.86)" >
<path style="stroke: none; stroke-width: 1; stroke-dasharray: none; stroke-linecap: butt; stroke-dashoffset: 0; stroke-linejoin: miter; stroke-miterlimit: 4; fill: rgb(0,0,0); fill-rule: nonzero; opacity: 1;" transform=" translate(-12, -22.86)" d="M 0.5 21.87 C 0.22771619325150694 21.869945537899753 0.005445670797161906 22.08777064990501 1.1102230246251565e-16 22.36 L 0 23.36 C 0 23.636142374915398 0.22385762508460327 23.86 0.5 23.86 L 23.5 23.86 C 23.7761423749154 23.86 24 23.636142374915398 24 23.36 L 24 22.36 C 23.99455432920284 22.08777064990501 23.772283806748494 21.869945537899753 23.5 21.87 Z" stroke-linecap="round" />
</g>
<g transform="matrix(1 0 0 1 0 6.64)" >
<path style="stroke: none; stroke-width: 1; stroke-dasharray: none; stroke-linecap: butt; stroke-dashoffset: 0; stroke-linejoin: miter; stroke-miterlimit: 4; fill: rgb(0,0,0); fill-rule: nonzero; opacity: 1;" transform=" translate(-12, -18.64)" d="M 22.59 20.37 C 22.785038264752394 20.372278579288345 22.9635971289067 20.26093119069141 23.047372958471772 20.084787138785355 C 23.131148788036846 19.908643086879305 23.10484631711764 19.699861648674236 22.98 19.55 C 22.453822452311137 18.91817334490601 21.771098129435128 18.4354389751957 21 18.15 L 16.11 16.919999999999998 C 15.969652815479808 16.88268461972624 15.820015940381394 16.908232378889384 15.7 16.99 C 14.624433731445327 17.796652710986663 13.340641169512924 18.278942349118026 12.000000000000002 18.38 C 10.636977700251562 18.291145147544476 9.328280263271383 17.81209940138197 8.23 17 C 8.112114911466374 16.913495987073905 7.961757490337188 16.884157953682845 7.82 16.92 L 2.92 18.17 C 2.1686599260493145 18.45105973521176 1.505881047544944 18.927432054136776 0.9999999999999987 19.55 C 0.883541268146973 19.701968903422475 0.8620083818699724 19.906361777477102 0.9442418914884086 20.079263002828686 C 1.0264754011068449 20.25216422818027 1.1986200256978237 20.36444218852939 1.3900000000000001 20.37 Z" stroke-linecap="round" />
</g>
<g transform="matrix(1 0 0 1 0 -3.4)" >
<path style="stroke: none; stroke-width: 1; stroke-dasharray: none; stroke-linecap: butt; stroke-dashoffset: 0; stroke-linejoin: miter; stroke-miterlimit: 4; fill: rgb(0,0,0); fill-rule: nonzero; opacity: 1;" transform=" translate(-12, -8.6)" d="M 7.91 15.09 C 8.995426269054601 16.206079425830474 10.433284694768062 16.912643762790402 11.979999999999999 17.09 C 13.5455318121575 16.903979234073716 14.996320166512007 16.175046548715112 16.08 15.030000000000001 C 16.513964205377135 15.55678808501261 17.1678474848683 15.852328550319351 17.849999999999998 15.83 C 19.213988767307413 15.767273268647717 20.492988407316275 15.149451408643435 21.389999999999997 14.12 C 21.492728805861383 13.994187646341256 21.526437223234065 13.825645559477836 21.479999999999997 13.670000000000002 C 21.43307009110447 13.512457865359165 21.31441143899277 13.386383047490488 21.159999999999997 13.330000000000002 C 20.510240263862915 13.087437751841874 19.97265564412576 12.61393606690782 19.65 12 C 19.378518917144408 11.546676551538845 19.16040185874621 11.063463376010526 19 10.559999999999999 C 19.12666997669678 10.241128116239663 19.19770006660771 9.90288959285428 19.21 9.56 C 19.239328766351004 9.023829504248122 19.060165900027126 8.497090677255915 18.71 8.09 L 18.71 3.48 C 18.72281419621989 2.2812535578594413 17.95208809889258 1.2144063810326915 16.81 0.8500000000000001 C 13.681655422143894 -0.13023258473769195 10.328344577856102 -0.1302325847376915 7.199999999999999 0.8500000000000018 C 6.036083339217669 1.1935039520616288 5.240523535641514 2.2664897384233154 5.25 3.4799999999999995 L 5.25 8 C 4.8698484977845915 8.411584472493361 4.674722220358431 8.960828808952185 4.71 9.519999999999998 C 4.719895062590996 9.897514255699901 4.797809298867599 10.27014755963148 4.9399999999999995 10.619999999999997 C 4.7900053555236575 11.10177483272927 4.585339035647661 11.564790441629066 4.330000000000001 12 C 4.013710860890253 12.61141975946094 3.4832716806753097 13.084899027706495 2.8400000000000003 13.33 C 2.6855885610072248 13.386383047490487 2.566929908895528 13.512457865359163 2.52 13.67 C 2.473562776765932 13.825645559477834 2.507271194138616 13.994187646341256 2.61 14.12 C 3.507011592683722 15.149451408643433 4.786011232692585 15.767273268647717 6.15 15.829999999999998 C 6.817679796086965 15.858219766474328 7.463089917615101 15.586854147195453 7.91 15.09 Z M 16.91 4.27 C 16.97901514689071 4.234409720102687 17.06098485310929 4.234409720102687 17.13 4.27 C 17.19176258889248 4.318196197425607 17.228500595395005 4.39167221043065 17.23 4.47 L 17.23 5.47 C 17.232523519446694 5.585248405268708 17.152752510444078 5.6860117850614875 17.04 5.71 C 15.398566717351976 6.169927710967559 13.704472573004015 6.415302458065581 12.000000000000002 6.440000000000004 C 10.291882010203182 6.439849512516446 8.591007661648842 6.217996336618054 6.940000000000001 5.78 C 6.827247489555922 5.756011785061487 6.747476480553305 5.655248405268709 6.75 5.54 L 6.75 4.54 C 6.7514994046049965 4.461672210430651 6.788237411107518 4.388196197425607 6.85 4.34 C 6.919015146890711 4.304409720102687 7.000984853109288 4.304409720102687 7.069999999999999 4.34 C 10.302733249613448 5.207101131787637 13.709903762540556 5.1829122944747645 16.93000000000001 4.269999999999996 Z M 12 15.63 C 11 15.63 8.17 14.14 7.79 11.9 C 7.699434157176818 11.322412996947286 7.3232733507427685 10.82964234051868 6.79 10.59 C 6.425717801151354 10.34480356394239 6.2139455540660595 9.928822364310562 6.23 9.49 C 6.207473947866076 9.339166672416397 6.243230001588438 9.185415641410236 6.33 9.06 C 6.598703511676665 8.940838225244981 6.771404112690981 8.673937296404674 6.7700000000000005 8.38 L 6.7700000000000005 8.09 C 6.7700000000000005 8.011310674166737 6.8070485393333895 7.937213595499958 6.87 7.89 C 6.942833169874238 7.8557128933414955 7.027166830125763 7.8557128933414955 7.1000000000000005 7.89 C 8.686246351580284 8.385323181912277 10.338218060200067 8.638175994456121 12.000000000000002 8.64 C 13.673712640521982 8.626112698361451 15.335751211638808 8.359781973983706 16.930000000000007 7.850000000000001 C 17.002833169874236 7.815712893341496 17.087166830125764 7.815712893341496 17.16 7.8500000000000005 C 17.222206115897755 7.902188827488946 17.2586931201031 7.978811536320173 17.26 8.06 L 17.26 8.23 L 17.26 8.23 C 17.20335475106827 8.547615016353783 17.36192083755794 8.864747189333116 17.650000000000002 9.01 C 17.650000000000002 9.01 17.76 9.16 17.76 9.45 C 17.776054445933944 9.888822364310561 17.564282198848648 10.30480356394239 17.200000000000003 10.549999999999999 C 16.672789382662675 10.792045030835284 16.298714406769143 11.278342499496878 16.200000000000003 11.85 C 15.81 14.14 13 15.63 12 15.63 Z" stroke-linecap="round" />
</g>
</g>
</g>
</svg>