<svg id='Interface_Edit_Brush_2_24' width='24' height='24' viewBox='0 0 24 24' xmlns='http://www.w3.org/2000/svg' xmlns:xlink='http://www.w3.org/1999/xlink'><rect width='24' height='24' stroke='none' fill='#000000' opacity='0'/>


<g transform="matrix(1.43 0 0 1.43 12 12)" >
<g style="" >
<g transform="matrix(1 0 0 1 -3.22 3.27)" >
<path style="stroke: rgb(0,0,0); stroke-width: 1; stroke-dasharray: none; stroke-linecap: round; stroke-dashoffset: 0; stroke-linejoin: round; stroke-miterlimit: 4; fill: none; fill-rule: nonzero; opacity: 1;" transform=" translate(-3.78, -10.27)" d="M 6.13 12.06 C 4.6 13.6 2 14.11 0.5 12.57 C 2.5 10.5 0.5 9.5 2 8 C 2.7175938799159183 7.200648097318682 3.8182616760645707 6.863438792361413 4.860469807536974 7.123643810579406 C 5.9026779390093775 7.383848828797399 6.7156796688839755 8.198838337962643 6.973338840245129 9.241678782242836 C 7.230998011606282 10.284519226523027 6.8911018826615456 11.384360276110138 6.090000000000002 12.099999999999998 Z" stroke-linecap="round" />
</g>
<g transform="matrix(1 0 0 1 2.06 -2.1)" >
<path style="stroke: rgb(0,0,0); stroke-width: 1; stroke-dasharray: none; stroke-linecap: round; stroke-dashoffset: 0; stroke-linejoin: round; stroke-miterlimit: 4; fill: none; fill-rule: nonzero; opacity: 1;" transform=" translate(-9.06, -4.9)" d="M 12.92 1.08 C 12.527982647390948 0.6905004431499635 11.992276797109911 0.48056166398577405 11.44 0.5 C 10.8880976457144 0.5150018063359239 10.366946775228389 0.7574817252426086 10 1.17 L 4.62 7.17 C 5.196915090618909 7.284240190750795 5.724361147076877 7.574160870790605 6.13 8 C 6.494834777998943 8.36335122199697 6.760007651533877 8.8144894873616 6.9 9.309999999999999 L 12.83 4 C 13.24003061110033 3.6354162435041393 13.48227342253539 3.118390541486024 13.5 2.57 C 13.522241920306241 2.014294417552329 13.31209021474024 1.4744219325638064 12.92 1.08 Z" stroke-linecap="round" />
</g>
</g>
</g>
</svg>
